<!-- Generator: Adobe Illustrator 21.1.0, SVG Export Plug-In  -->
<svg version="1.1"
	 xmlns="http://www.w3.org/2000/svg" xmlns:xlink="http://www.w3.org/1999/xlink" xmlns:a="http://ns.adobe.com/AdobeSVGViewerExtensions/3.0/"
	 x="0px" y="0px" width="564px" height="1233px" viewBox="0 0 564 1233"
	 style="overflow:scroll;enable-background:new 0 0 564 1233;" xml:space="preserve">
<style type="text/css">
	.st0{fill:#62C370;}
	.st1{fill:#FFFFFF;}
</style>
<defs>
</defs>
<g>
	<rect class="st0" width="564" height="1233"/>
</g>
<g>
	<path class="st1" d="M200,153.5h-3.3V142h-12.5v11.5h-3.3v-24.9h3.3v10.7h12.5v-10.7h3.3V153.5z"/>
	<path class="st1" d="M225.7,141.9c0,2.4-0.4,4.6-1.2,6.4s-2,3.2-3.5,4.2s-3.3,1.4-5.3,1.4c-2,0-3.7-0.5-5.2-1.4
		c-1.5-1-2.7-2.3-3.5-4.1c-0.8-1.8-1.3-3.8-1.3-6.2v-1.8c0-2.4,0.4-4.5,1.2-6.3c0.8-1.8,2-3.2,3.5-4.2c1.5-1,3.3-1.5,5.2-1.5
		c2,0,3.8,0.5,5.3,1.4c1.5,1,2.7,2.4,3.5,4.2c0.8,1.8,1.2,4,1.2,6.4V141.9z M222.4,140.2c0-3-0.6-5.2-1.8-6.8
		c-1.2-1.6-2.8-2.4-5-2.4c-2.1,0-3.7,0.8-4.9,2.4c-1.2,1.6-1.8,3.8-1.8,6.6v1.8c0,2.9,0.6,5.1,1.8,6.7c1.2,1.6,2.9,2.5,5,2.5
		c2.1,0,3.8-0.8,4.9-2.3c1.2-1.5,1.8-3.8,1.8-6.6V140.2z"/>
	<path class="st1" d="M235.5,128.6l8.1,20.3l8.1-20.3h4.3v24.9h-3.3v-9.7l0.3-10.5l-8.2,20.1h-2.5l-8.2-20.1l0.3,10.4v9.7h-3.3
		v-24.9H235.5z"/>
	<path class="st1" d="M276.6,142h-10.8v8.8h12.5v2.7h-15.8v-24.9h15.6v2.7h-12.4v8h10.8V142z"/>
	<path class="st1" d="M194.6,257h-10.4l-2.3,6.5h-3.4l9.5-24.9h2.9l9.5,24.9H197L194.6,257z M185.2,254.3h8.5l-4.2-11.6L185.2,254.3
		z"/>
	<path class="st1" d="M222.5,255.6c-0.3,2.6-1.3,4.7-2.9,6.1s-3.8,2.1-6.5,2.1c-2.9,0-5.3-1.1-7.1-3.2c-1.8-2.1-2.7-4.9-2.7-8.5
		v-2.4c0-2.3,0.4-4.3,1.2-6.1c0.8-1.8,2-3.1,3.5-4c1.5-0.9,3.3-1.4,5.3-1.4c2.6,0,4.8,0.7,6.4,2.2c1.6,1.5,2.5,3.5,2.8,6.1h-3.3
		c-0.3-2-0.9-3.4-1.9-4.3c-1-0.9-2.3-1.3-4-1.3c-2.1,0-3.7,0.8-4.9,2.3c-1.2,1.6-1.8,3.8-1.8,6.6v2.4c0,2.7,0.6,4.9,1.7,6.4
		c1.1,1.6,2.7,2.4,4.7,2.4c1.8,0,3.2-0.4,4.2-1.2c1-0.8,1.6-2.3,1.9-4.3H222.5z"/>
	<path class="st1" d="M246,255.6c-0.3,2.6-1.3,4.7-2.9,6.1s-3.8,2.1-6.5,2.1c-2.9,0-5.3-1.1-7.1-3.2c-1.8-2.1-2.7-4.9-2.7-8.5v-2.4
		c0-2.3,0.4-4.3,1.2-6.1c0.8-1.8,2-3.1,3.5-4c1.5-0.9,3.3-1.4,5.3-1.4c2.6,0,4.8,0.7,6.4,2.2c1.6,1.5,2.5,3.5,2.8,6.1h-3.3
		c-0.3-2-0.9-3.4-1.9-4.3c-1-0.9-2.3-1.3-4-1.3c-2.1,0-3.7,0.8-4.9,2.3c-1.2,1.6-1.8,3.8-1.8,6.6v2.4c0,2.7,0.6,4.9,1.7,6.4
		c1.1,1.6,2.7,2.4,4.7,2.4c1.8,0,3.2-0.4,4.2-1.2c1-0.8,1.6-2.3,1.9-4.3H246z"/>
	<path class="st1" d="M270.3,251.9c0,2.4-0.4,4.6-1.2,6.4s-2,3.2-3.5,4.2s-3.3,1.4-5.3,1.4c-2,0-3.7-0.5-5.2-1.4
		c-1.5-1-2.7-2.3-3.5-4.1c-0.8-1.8-1.3-3.8-1.3-6.2v-1.8c0-2.4,0.4-4.5,1.2-6.3c0.8-1.8,2-3.2,3.5-4.2c1.5-1,3.3-1.5,5.2-1.5
		c2,0,3.8,0.5,5.3,1.4c1.5,1,2.7,2.4,3.5,4.2c0.8,1.8,1.2,4,1.2,6.4V251.9z M267.1,250.2c0-3-0.6-5.2-1.8-6.8
		c-1.2-1.6-2.8-2.4-5-2.4c-2.1,0-3.7,0.8-4.9,2.4c-1.2,1.6-1.8,3.8-1.8,6.6v1.8c0,2.9,0.6,5.1,1.8,6.7c1.2,1.6,2.9,2.5,5,2.5
		c2.1,0,3.8-0.8,4.9-2.3c1.2-1.5,1.8-3.8,1.8-6.6V250.2z"/>
	<path class="st1" d="M293.5,238.6v16.9c0,2.3-0.7,4.3-2.2,5.8c-1.5,1.5-3.4,2.3-6,2.5l-0.9,0c-2.7,0-4.9-0.7-6.5-2.2
		c-1.6-1.5-2.4-3.5-2.5-6.1v-17h3.2v16.9c0,1.8,0.5,3.2,1.5,4.2c1,1,2.4,1.5,4.2,1.5c1.9,0,3.3-0.5,4.3-1.5c1-1,1.5-2.4,1.5-4.2
		v-16.9H293.5z"/>
	<path class="st1" d="M318.5,263.5h-3.3l-12.5-19.2v19.2h-3.3v-24.9h3.3l12.6,19.3v-19.3h3.3V263.5z"/>
	<path class="st1" d="M341.7,241.3h-8v22.2h-3.3v-22.2h-8v-2.7h19.2V241.3z"/>
	<path class="st1" d="M194.6,367h-10.4l-2.3,6.5h-3.4l9.5-24.9h2.9l9.5,24.9H197L194.6,367z M185.2,364.3h8.5l-4.2-11.6L185.2,364.3
		z"/>
	<path class="st1" d="M222.5,365.6c-0.3,2.6-1.3,4.7-2.9,6.1s-3.8,2.1-6.5,2.1c-2.9,0-5.3-1.1-7.1-3.2c-1.8-2.1-2.7-4.9-2.7-8.5
		v-2.4c0-2.3,0.4-4.3,1.2-6.1c0.8-1.8,2-3.1,3.5-4c1.5-0.9,3.3-1.4,5.3-1.4c2.6,0,4.8,0.7,6.4,2.2c1.6,1.5,2.5,3.5,2.8,6.1h-3.3
		c-0.3-2-0.9-3.4-1.9-4.3c-1-0.9-2.3-1.3-4-1.3c-2.1,0-3.7,0.8-4.9,2.3c-1.2,1.6-1.8,3.8-1.8,6.6v2.4c0,2.7,0.6,4.9,1.7,6.4
		c1.1,1.6,2.7,2.4,4.7,2.4c1.8,0,3.2-0.4,4.2-1.2c1-0.8,1.6-2.3,1.9-4.3H222.5z"/>
	<path class="st1" d="M246.8,373.5h-3.3V362H231v11.5h-3.3v-24.9h3.3v10.7h12.5v-10.7h3.3V373.5z"/>
	<path class="st1" d="M256.9,373.5h-3.3v-24.9h3.3V373.5z"/>
	<path class="st1" d="M277.6,362h-10.8v8.8h12.5v2.7h-15.8v-24.9h15.6v2.7h-12.4v8h10.8V362z"/>
	<path class="st1" d="M292.4,369.1l7.1-20.5h3.6l-9.2,24.9H291l-9.2-24.9h3.6L292.4,369.1z"/>
	<path class="st1" d="M321.2,362h-10.8v8.8H323v2.7h-15.8v-24.9h15.6v2.7h-12.4v8h10.8V362z"/>
	<path class="st1" d="M332,348.6l8.1,20.3l8.1-20.3h4.3v24.9h-3.3v-9.7l0.3-10.5l-8.2,20.1h-2.5l-8.2-20.1l0.3,10.4v9.7h-3.3v-24.9
		H332z"/>
	<path class="st1" d="M373.1,362h-10.8v8.8h12.5v2.7H359v-24.9h15.6v2.7h-12.4v8h10.8V362z"/>
	<path class="st1" d="M398.7,373.5h-3.3l-12.5-19.2v19.2h-3.3v-24.9h3.3l12.6,19.3v-19.3h3.3V373.5z"/>
	<path class="st1" d="M421.9,351.3h-8v22.2h-3.3v-22.2h-8v-2.7h19.2V351.3z"/>
	<path class="st1" d="M180.9,483.5v-24.9h7c2.2,0,4.1,0.5,5.7,1.4c1.7,1,2.9,2.3,3.9,4.1c0.9,1.8,1.4,3.8,1.4,6.1v1.6
		c0,2.3-0.5,4.4-1.4,6.2c-0.9,1.8-2.2,3.1-3.9,4.1c-1.7,0.9-3.6,1.4-5.9,1.5H180.9z M184.2,461.3v19.5h3.5c2.5,0,4.5-0.8,5.9-2.4
		c1.4-1.6,2.1-3.8,2.1-6.7v-1.5c0-2.8-0.7-5-2-6.6s-3.2-2.4-5.6-2.4H184.2z"/>
	<path class="st1" d="M218.6,472h-10.8v8.8h12.5v2.7h-15.8v-24.9h15.6v2.7h-12.4v8h10.8V472z"/>
	<path class="st1" d="M233.4,479.1l7.1-20.5h3.6l-9.2,24.9h-2.9l-9.2-24.9h3.6L233.4,479.1z"/>
	<path class="st1" d="M251.6,483.5h-3.3v-24.9h3.3V483.5z"/>
	<path class="st1" d="M276.6,475.6c-0.3,2.6-1.3,4.7-2.9,6.1s-3.8,2.1-6.5,2.1c-2.9,0-5.3-1.1-7.1-3.2c-1.8-2.1-2.7-4.9-2.7-8.5
		v-2.4c0-2.3,0.4-4.3,1.2-6.1c0.8-1.8,2-3.1,3.5-4c1.5-0.9,3.3-1.4,5.3-1.4c2.6,0,4.8,0.7,6.4,2.2c1.6,1.5,2.5,3.5,2.8,6.1h-3.3
		c-0.3-2-0.9-3.4-1.9-4.3c-1-0.9-2.3-1.3-4-1.3c-2.1,0-3.7,0.8-4.9,2.3c-1.2,1.6-1.8,3.8-1.8,6.6v2.4c0,2.7,0.6,4.9,1.7,6.4
		c1.1,1.6,2.7,2.4,4.7,2.4c1.8,0,3.2-0.4,4.2-1.2c1-0.8,1.6-2.3,1.9-4.3H276.6z"/>
	<path class="st1" d="M295.9,472h-10.8v8.8h12.5v2.7h-15.8v-24.9h15.6v2.7h-12.4v8h10.8V472z"/>
	<path class="st1" d="M309.7,472.4c-2.8-0.8-4.9-1.8-6.1-3c-1.3-1.2-1.9-2.6-1.9-4.4c0-2,0.8-3.6,2.3-4.9c1.6-1.3,3.6-1.9,6.1-1.9
		c1.7,0,3.2,0.3,4.6,1c1.3,0.7,2.4,1.6,3.1,2.7c0.7,1.2,1.1,2.4,1.1,3.8h-3.3c0-1.5-0.5-2.7-1.4-3.6c-1-0.9-2.3-1.3-4.1-1.3
		c-1.6,0-2.9,0.4-3.8,1.1c-0.9,0.7-1.4,1.7-1.4,3c0,1,0.4,1.9,1.3,2.6c0.9,0.7,2.3,1.3,4.4,1.9c2.1,0.6,3.7,1.2,4.9,1.9
		c1.2,0.7,2,1.5,2.6,2.5c0.6,0.9,0.8,2,0.8,3.3c0,2-0.8,3.6-2.4,4.8c-1.6,1.2-3.7,1.8-6.3,1.8c-1.7,0-3.3-0.3-4.8-1
		c-1.5-0.7-2.6-1.6-3.4-2.7c-0.8-1.1-1.2-2.4-1.2-3.9h3.3c0,1.5,0.6,2.7,1.7,3.6c1.1,0.9,2.6,1.3,4.5,1.3c1.7,0,3.1-0.4,4-1.1
		c0.9-0.7,1.4-1.7,1.4-2.9c0-1.2-0.4-2.2-1.3-2.8C313.5,473.7,312,473,309.7,472.4z"/>
	<path class="st1" d="M195,582h-10.8v8.8h12.5v2.7h-15.8v-24.9h15.6v2.7h-12.4v8H195V582z"/>
	<path class="st1" d="M209.6,578.1l6-9.5h3.9l-7.9,12.3l8,12.5h-3.9l-6.1-9.7l-6.2,9.7h-3.9l8.1-12.5l-7.9-12.3h3.8L209.6,578.1z"/>
	<path class="st1" d="M227.4,583.8v9.7h-3.3v-24.9h9.2c2.7,0,4.9,0.7,6.4,2.1c1.5,1.4,2.3,3.2,2.3,5.5c0,2.4-0.8,4.3-2.3,5.6
		c-1.5,1.3-3.7,2-6.5,2H227.4z M227.4,581.1h5.9c1.8,0,3.1-0.4,4-1.2c0.9-0.8,1.4-2,1.4-3.6c0-1.5-0.5-2.7-1.4-3.6
		c-0.9-0.9-2.2-1.4-3.8-1.4h-6.1V581.1z"/>
	<path class="st1" d="M250.2,590.8H262v2.7h-15.1v-24.9h3.3V590.8z"/>
	<path class="st1" d="M284.5,581.9c0,2.4-0.4,4.6-1.2,6.4s-2,3.2-3.5,4.2s-3.3,1.4-5.3,1.4c-2,0-3.7-0.5-5.2-1.4
		c-1.5-1-2.7-2.3-3.5-4.1c-0.8-1.8-1.3-3.8-1.3-6.2v-1.8c0-2.4,0.4-4.5,1.2-6.3c0.8-1.8,2-3.2,3.5-4.2c1.5-1,3.3-1.5,5.2-1.5
		c2,0,3.8,0.5,5.3,1.4c1.5,1,2.7,2.4,3.5,4.2c0.8,1.8,1.2,4,1.2,6.4V581.9z M281.2,580.2c0-3-0.6-5.2-1.8-6.8
		c-1.2-1.6-2.8-2.4-5-2.4c-2.1,0-3.7,0.8-4.9,2.4c-1.2,1.6-1.8,3.8-1.8,6.6v1.8c0,2.9,0.6,5.1,1.8,6.7c1.2,1.6,2.9,2.5,5,2.5
		c2.1,0,3.8-0.8,4.9-2.3c1.2-1.5,1.8-3.8,1.8-6.6V580.2z"/>
	<path class="st1" d="M299.2,583.4h-5.8v10.1h-3.3v-24.9h8.2c2.8,0,5,0.6,6.5,1.9c1.5,1.3,2.3,3.1,2.3,5.6c0,1.5-0.4,2.9-1.3,4
		c-0.8,1.2-2,2-3.5,2.6l5.8,10.6v0.2h-3.5L299.2,583.4z M293.4,580.7h5c1.6,0,2.9-0.4,3.9-1.3s1.4-2,1.4-3.4c0-1.5-0.5-2.7-1.4-3.5
		c-0.9-0.8-2.2-1.2-4-1.2h-5V580.7z"/>
	<path class="st1" d="M326.4,582h-10.8v8.8h12.5v2.7h-15.8v-24.9H328v2.7h-12.4v8h10.8V582z"/>
	<path class="st1" d="M194.6,692.5h-10.4v11h-3.3v-24.9h15.4v2.7h-12.1v8.5h10.4V692.5z"/>
	<path class="st1" d="M211.8,697h-10.4l-2.3,6.5h-3.4l9.5-24.9h2.9l9.5,24.9h-3.4L211.8,697z M202.3,694.3h8.5l-4.2-11.6
		L202.3,694.3z"/>
	<path class="st1" d="M228.3,699.1l7.1-20.5h3.6l-9.2,24.9h-2.9l-9.2-24.9h3.6L228.3,699.1z"/>
	<path class="st1" d="M262,691.9c0,2.4-0.4,4.6-1.2,6.4s-2,3.2-3.5,4.2s-3.3,1.4-5.3,1.4c-2,0-3.7-0.5-5.2-1.4
		c-1.5-1-2.7-2.3-3.5-4.1c-0.8-1.8-1.3-3.8-1.3-6.2v-1.8c0-2.4,0.4-4.5,1.2-6.3c0.8-1.8,2-3.2,3.5-4.2c1.5-1,3.3-1.5,5.2-1.5
		c2,0,3.8,0.5,5.3,1.4c1.5,1,2.7,2.4,3.5,4.2c0.8,1.8,1.2,4,1.2,6.4V691.9z M258.7,690.2c0-3-0.6-5.2-1.8-6.8
		c-1.2-1.6-2.8-2.4-5-2.4c-2.1,0-3.7,0.8-4.9,2.4c-1.2,1.6-1.8,3.8-1.8,6.6v1.8c0,2.9,0.6,5.1,1.8,6.7c1.2,1.6,2.9,2.5,5,2.5
		c2.1,0,3.8-0.8,4.9-2.3c1.2-1.5,1.8-3.8,1.8-6.6V690.2z"/>
	<path class="st1" d="M285.1,678.6v16.9c0,2.3-0.7,4.3-2.2,5.8c-1.5,1.5-3.4,2.3-6,2.5l-0.9,0c-2.7,0-4.9-0.7-6.5-2.2
		c-1.6-1.5-2.4-3.5-2.5-6.1v-17h3.2v16.9c0,1.8,0.5,3.2,1.5,4.2c1,1,2.4,1.5,4.2,1.5c1.9,0,3.3-0.5,4.3-1.5c1-1,1.5-2.4,1.5-4.2
		v-16.9H285.1z"/>
	<path class="st1" d="M300.1,693.4h-5.8v10.1H291v-24.9h8.2c2.8,0,5,0.6,6.5,1.9c1.5,1.3,2.3,3.1,2.3,5.6c0,1.5-0.4,2.9-1.3,4
		c-0.8,1.2-2,2-3.5,2.6l5.8,10.6v0.2h-3.5L300.1,693.4z M294.3,690.7h5c1.6,0,2.9-0.4,3.9-1.3s1.4-2,1.4-3.4c0-1.5-0.5-2.7-1.4-3.5
		c-0.9-0.8-2.2-1.2-4-1.2h-5V690.7z"/>
	<path class="st1" d="M316.7,703.5h-3.3v-24.9h3.3V703.5z"/>
	<path class="st1" d="M340.1,681.3h-8v22.2h-3.3v-22.2h-8v-2.7h19.2V681.3z"/>
	<path class="st1" d="M358.6,692h-10.8v8.8h12.5v2.7h-15.8v-24.9h15.6v2.7h-12.4v8h10.8V692z"/>
	<path class="st1" d="M372.5,692.4c-2.8-0.8-4.9-1.8-6.1-3c-1.3-1.2-1.9-2.6-1.9-4.4c0-2,0.8-3.6,2.3-4.9c1.6-1.3,3.6-1.9,6.1-1.9
		c1.7,0,3.2,0.3,4.6,1c1.3,0.7,2.4,1.6,3.1,2.7c0.7,1.2,1.1,2.4,1.1,3.8h-3.3c0-1.5-0.5-2.7-1.4-3.6c-1-0.9-2.3-1.3-4.1-1.3
		c-1.6,0-2.9,0.4-3.8,1.1c-0.9,0.7-1.4,1.7-1.4,3c0,1,0.4,1.9,1.3,2.6c0.9,0.7,2.3,1.3,4.4,1.9c2.1,0.6,3.7,1.2,4.9,1.9
		c1.2,0.7,2,1.5,2.6,2.5c0.6,0.9,0.8,2,0.8,3.3c0,2-0.8,3.6-2.4,4.8c-1.6,1.2-3.7,1.8-6.3,1.8c-1.7,0-3.3-0.3-4.8-1
		c-1.5-0.7-2.6-1.6-3.4-2.7c-0.8-1.1-1.2-2.4-1.2-3.9h3.3c0,1.5,0.6,2.7,1.7,3.6c1.1,0.9,2.6,1.3,4.5,1.3c1.7,0,3.1-0.4,4-1.1
		c0.9-0.7,1.4-1.7,1.4-2.9c0-1.2-0.4-2.2-1.3-2.8C376.3,693.7,374.7,693,372.5,692.4z"/>
	<path class="st1" d="M188.2,802.4c-2.8-0.8-4.9-1.8-6.1-3c-1.3-1.2-1.9-2.6-1.9-4.4c0-2,0.8-3.6,2.3-4.9c1.6-1.3,3.6-1.9,6.1-1.9
		c1.7,0,3.2,0.3,4.6,1c1.3,0.7,2.4,1.6,3.1,2.7c0.7,1.2,1.1,2.4,1.1,3.8h-3.3c0-1.5-0.5-2.7-1.4-3.6c-1-0.9-2.3-1.3-4.1-1.3
		c-1.6,0-2.9,0.4-3.8,1.1c-0.9,0.7-1.4,1.7-1.4,3c0,1,0.4,1.9,1.3,2.6c0.9,0.7,2.3,1.3,4.4,1.9c2.1,0.6,3.7,1.2,4.9,1.9
		c1.2,0.7,2,1.5,2.6,2.5c0.6,0.9,0.8,2,0.8,3.3c0,2-0.8,3.6-2.4,4.8c-1.6,1.2-3.7,1.8-6.3,1.8c-1.7,0-3.3-0.3-4.8-1
		c-1.5-0.7-2.6-1.6-3.4-2.7c-0.8-1.1-1.2-2.4-1.2-3.9h3.3c0,1.5,0.6,2.7,1.7,3.6c1.1,0.9,2.6,1.3,4.5,1.3c1.7,0,3.1-0.4,4-1.1
		c0.9-0.7,1.4-1.7,1.4-2.9c0-1.2-0.4-2.2-1.3-2.8C192,803.7,190.5,803,188.2,802.4z"/>
	<path class="st1" d="M216.4,802h-10.8v8.8h12.5v2.7h-15.8v-24.9H218v2.7h-12.4v8h10.8V802z"/>
	<path class="st1" d="M240.5,791.3h-8v22.2h-3.3v-22.2h-8v-2.7h19.2V791.3z"/>
	<path class="st1" d="M262.3,791.3h-8v22.2h-3.3v-22.2h-8v-2.7h19.2V791.3z"/>
	<path class="st1" d="M270.2,813.5H267v-24.9h3.3V813.5z"/>
	<path class="st1" d="M296.1,813.5h-3.3l-12.5-19.2v19.2h-3.3v-24.9h3.3l12.6,19.3v-19.3h3.3V813.5z"/>
	<path class="st1" d="M321,810.2c-0.8,1.2-2,2.1-3.5,2.7c-1.5,0.6-3.3,0.9-5.3,0.9c-2,0-3.8-0.5-5.4-1.4s-2.8-2.3-3.6-4.1
		c-0.9-1.8-1.3-3.8-1.3-6.1v-2.2c0-3.7,0.9-6.7,2.6-8.7c1.7-2.1,4.2-3.1,7.4-3.1c2.6,0,4.7,0.7,6.3,2c1.6,1.3,2.6,3.2,2.9,5.6h-3.3
		c-0.6-3.3-2.6-5-5.9-5c-2.2,0-3.9,0.8-5,2.3s-1.7,3.8-1.7,6.7v2c0,2.8,0.6,5,1.9,6.7c1.3,1.6,3,2.5,5.2,2.5c1.2,0,2.3-0.1,3.2-0.4
		c0.9-0.3,1.7-0.7,2.3-1.4v-5.6h-5.8v-2.7h9V810.2z"/>
	<path class="st1" d="M334.5,802.4c-2.8-0.8-4.9-1.8-6.1-3c-1.3-1.2-1.9-2.6-1.9-4.4c0-2,0.8-3.6,2.3-4.9c1.6-1.3,3.6-1.9,6.1-1.9
		c1.7,0,3.2,0.3,4.6,1c1.3,0.7,2.4,1.6,3.1,2.7c0.7,1.2,1.1,2.4,1.1,3.8h-3.3c0-1.5-0.5-2.7-1.4-3.6c-1-0.9-2.3-1.3-4.1-1.3
		c-1.6,0-2.9,0.4-3.8,1.1c-0.9,0.7-1.4,1.7-1.4,3c0,1,0.4,1.9,1.3,2.6c0.9,0.7,2.3,1.3,4.4,1.9c2.1,0.6,3.7,1.2,4.9,1.9
		c1.2,0.7,2,1.5,2.6,2.5c0.6,0.9,0.8,2,0.8,3.3c0,2-0.8,3.6-2.4,4.8c-1.6,1.2-3.7,1.8-6.3,1.8c-1.7,0-3.3-0.3-4.8-1
		c-1.5-0.7-2.6-1.6-3.4-2.7c-0.8-1.1-1.2-2.4-1.2-3.9h3.3c0,1.5,0.6,2.7,1.7,3.6c1.1,0.9,2.6,1.3,4.5,1.3c1.7,0,3.1-0.4,4-1.1
		c0.9-0.7,1.4-1.7,1.4-2.9c0-1.2-0.4-2.2-1.3-2.8C338.3,803.7,336.7,803,334.5,802.4z"/>
	<path class="st1" d="M200,923.5h-3.3V912h-12.5v11.5h-3.3v-24.9h3.3v10.7h12.5v-10.7h3.3V923.5z"/>
	<path class="st1" d="M220.6,912h-10.8v8.8h12.5v2.7h-15.8v-24.9h15.6v2.7h-12.4v8h10.8V912z"/>
	<path class="st1" d="M230.4,920.8h11.8v2.7h-15.1v-24.9h3.3V920.8z"/>
	<path class="st1" d="M249.9,913.8v9.7h-3.3v-24.9h9.2c2.7,0,4.9,0.7,6.4,2.1c1.5,1.4,2.3,3.2,2.3,5.5c0,2.4-0.8,4.3-2.3,5.6
		c-1.5,1.3-3.7,2-6.5,2H249.9z M249.9,911.1h5.9c1.8,0,3.1-0.4,4-1.2c0.9-0.8,1.4-2,1.4-3.6c0-1.5-0.5-2.7-1.4-3.6
		c-0.9-0.9-2.2-1.4-3.8-1.4h-6.1V911.1z"/>
	<path class="st1" d="M194.6,1027h-10.4l-2.3,6.5h-3.4l9.5-24.9h2.9l9.5,24.9H197L194.6,1027z M185.2,1024.3h8.5l-4.2-11.6
		L185.2,1024.3z"/>
	<path class="st1" d="M204.4,1033.5v-24.9h8.1c2.7,0,4.7,0.6,6.1,1.7c1.4,1.1,2,2.8,2,5c0,1.2-0.3,2.2-1,3.1
		c-0.7,0.9-1.6,1.6-2.7,2.1c1.3,0.4,2.4,1.1,3.2,2.1c0.8,1.1,1.2,2.3,1.2,3.8c0,2.2-0.7,4-2.2,5.3c-1.4,1.3-3.5,1.9-6.1,1.9H204.4z
		 M207.7,1019.2h5c1.4,0,2.6-0.4,3.4-1.1c0.9-0.7,1.3-1.7,1.3-2.9c0-1.4-0.4-2.4-1.2-3c-0.8-0.6-2-0.9-3.6-0.9h-4.9V1019.2z
		 M207.7,1021.9v9h5.4c1.5,0,2.7-0.4,3.6-1.2c0.9-0.8,1.3-1.9,1.3-3.3c0-3-1.6-4.5-4.9-4.5H207.7z"/>
	<path class="st1" d="M246.1,1021.9c0,2.4-0.4,4.6-1.2,6.4s-2,3.2-3.5,4.2s-3.3,1.4-5.3,1.4c-2,0-3.7-0.5-5.2-1.4
		c-1.5-1-2.7-2.3-3.5-4.1c-0.8-1.8-1.3-3.8-1.3-6.2v-1.8c0-2.4,0.4-4.5,1.2-6.3c0.8-1.8,2-3.2,3.5-4.2c1.5-1,3.3-1.5,5.2-1.5
		c2,0,3.8,0.5,5.3,1.4c1.5,1,2.7,2.4,3.5,4.2c0.8,1.8,1.2,4,1.2,6.4V1021.9z M242.8,1020.2c0-3-0.6-5.2-1.8-6.8
		c-1.2-1.6-2.8-2.4-5-2.4c-2.1,0-3.7,0.8-4.9,2.4c-1.2,1.6-1.8,3.8-1.8,6.6v1.8c0,2.9,0.6,5.1,1.8,6.7c1.2,1.6,2.9,2.5,5,2.5
		c2.1,0,3.8-0.8,4.9-2.3c1.2-1.5,1.8-3.8,1.8-6.6V1020.2z"/>
	<path class="st1" d="M269.2,1008.6v16.9c0,2.3-0.7,4.3-2.2,5.8c-1.5,1.5-3.4,2.3-6,2.5l-0.9,0c-2.7,0-4.9-0.7-6.5-2.2
		c-1.6-1.5-2.4-3.5-2.5-6.1v-17h3.2v16.9c0,1.8,0.5,3.2,1.5,4.2c1,1,2.4,1.5,4.2,1.5c1.9,0,3.3-0.5,4.3-1.5c1-1,1.5-2.4,1.5-4.2
		v-16.9H269.2z"/>
	<path class="st1" d="M292.3,1011.3h-8v22.2H281v-22.2h-8v-2.7h19.2V1011.3z"/>
	<path class="st1" d="M322.8,1008.6v16.9c0,2.3-0.7,4.3-2.2,5.8c-1.5,1.5-3.4,2.3-6,2.5l-0.9,0c-2.7,0-4.9-0.7-6.5-2.2
		c-1.6-1.5-2.4-3.5-2.5-6.1v-17h3.2v16.9c0,1.8,0.5,3.2,1.5,4.2c1,1,2.4,1.5,4.2,1.5c1.9,0,3.3-0.5,4.3-1.5c1-1,1.5-2.4,1.5-4.2
		v-16.9H322.8z"/>
	<path class="st1" d="M336.1,1022.4c-2.8-0.8-4.9-1.8-6.1-3c-1.3-1.2-1.9-2.6-1.9-4.4c0-2,0.8-3.6,2.3-4.9c1.6-1.3,3.6-1.9,6.1-1.9
		c1.7,0,3.2,0.3,4.6,1c1.3,0.7,2.4,1.6,3.1,2.7c0.7,1.2,1.1,2.4,1.1,3.8h-3.3c0-1.5-0.5-2.7-1.4-3.6c-1-0.9-2.3-1.3-4.1-1.3
		c-1.6,0-2.9,0.4-3.8,1.1c-0.9,0.7-1.4,1.7-1.4,3c0,1,0.4,1.9,1.3,2.6c0.9,0.7,2.3,1.3,4.4,1.9c2.1,0.6,3.7,1.2,4.9,1.9
		c1.2,0.7,2,1.5,2.6,2.5c0.6,0.9,0.8,2,0.8,3.3c0,2-0.8,3.6-2.4,4.8c-1.6,1.2-3.7,1.8-6.3,1.8c-1.7,0-3.3-0.3-4.8-1
		c-1.5-0.7-2.6-1.6-3.4-2.7c-0.8-1.1-1.2-2.4-1.2-3.9h3.3c0,1.5,0.6,2.7,1.7,3.6c1.1,0.9,2.6,1.3,4.5,1.3c1.7,0,3.1-0.4,4-1.1
		c0.9-0.7,1.4-1.7,1.4-2.9c0-1.2-0.4-2.2-1.3-2.8C339.9,1023.7,338.3,1023,336.1,1022.4z"/>
	<path class="st1" d="M190,1133.4h-5.8v10.1h-3.3v-24.9h8.2c2.8,0,5,0.6,6.5,1.9c1.5,1.3,2.3,3.1,2.3,5.6c0,1.5-0.4,2.9-1.3,4
		c-0.8,1.2-2,2-3.5,2.6l5.8,10.6v0.2h-3.5L190,1133.4z M184.2,1130.7h5c1.6,0,2.9-0.4,3.9-1.3s1.4-2,1.4-3.4c0-1.5-0.5-2.7-1.4-3.5
		c-0.9-0.8-2.2-1.2-4-1.2h-5V1130.7z"/>
	<path class="st1" d="M216.9,1137h-10.4l-2.3,6.5h-3.4l9.5-24.9h2.9l9.5,24.9h-3.4L216.9,1137z M207.4,1134.3h8.5l-4.2-11.6
		L207.4,1134.3z"/>
	<path class="st1" d="M241.7,1121.3h-8v22.2h-3.3v-22.2h-8v-2.7h19.2V1121.3z"/>
	<path class="st1" d="M260.1,1132h-10.8v8.8h12.5v2.7H246v-24.9h15.6v2.7h-12.4v8h10.8V1132z"/>
	<path class="st1" d="M293.5,1118.6v16.9c0,2.3-0.7,4.3-2.2,5.8c-1.5,1.5-3.4,2.3-6,2.5l-0.9,0c-2.7,0-4.9-0.7-6.5-2.2
		c-1.6-1.5-2.4-3.5-2.5-6.1v-17h3.2v16.9c0,1.8,0.5,3.2,1.5,4.2c1,1,2.4,1.5,4.2,1.5c1.9,0,3.3-0.5,4.3-1.5c1-1,1.5-2.4,1.5-4.2
		v-16.9H293.5z"/>
	<path class="st1" d="M306.7,1132.4c-2.8-0.8-4.9-1.8-6.1-3c-1.3-1.2-1.9-2.6-1.9-4.4c0-2,0.8-3.6,2.3-4.9c1.6-1.3,3.6-1.9,6.1-1.9
		c1.7,0,3.2,0.3,4.6,1c1.3,0.7,2.4,1.6,3.1,2.7c0.7,1.2,1.1,2.4,1.1,3.8h-3.3c0-1.5-0.5-2.7-1.4-3.6c-1-0.9-2.3-1.3-4.1-1.3
		c-1.6,0-2.9,0.4-3.8,1.1c-0.9,0.7-1.4,1.7-1.4,3c0,1,0.4,1.9,1.3,2.6c0.9,0.7,2.3,1.3,4.4,1.9c2.1,0.6,3.7,1.2,4.9,1.9
		c1.2,0.7,2,1.5,2.6,2.5c0.6,0.9,0.8,2,0.8,3.3c0,2-0.8,3.6-2.4,4.8c-1.6,1.2-3.7,1.8-6.3,1.8c-1.7,0-3.3-0.3-4.8-1
		c-1.5-0.7-2.6-1.6-3.4-2.7c-0.8-1.1-1.2-2.4-1.2-3.9h3.3c0,1.5,0.6,2.7,1.7,3.6c1.1,0.9,2.6,1.3,4.5,1.3c1.7,0,3.1-0.4,4-1.1
		c0.9-0.7,1.4-1.7,1.4-2.9c0-1.2-0.4-2.2-1.3-2.8C310.5,1133.7,309,1133,306.7,1132.4z"/>
</g>
<g>
	<path class="st1" d="M105.5,1152.1c-0.3,0-0.6-0.1-0.9-0.3c-0.5-0.3-0.7-0.9-0.6-1.5l2.3-13.1l-9.5-9.3c-0.4-0.4-0.6-1-0.4-1.5
		c0.2-0.5,0.6-0.9,1.2-1l13.2-1.9l5.9-12c0.3-0.5,0.8-0.8,1.3-0.8c0.6,0,1.1,0.3,1.3,0.8l5.9,12l13.2,1.9c0.6,0.1,1,0.5,1.2,1
		c0.2,0.5,0,1.1-0.4,1.5l-9.5,9.3l2.2,13.1c0.1,0.6-0.1,1.1-0.6,1.5c-0.5,0.3-1.1,0.4-1.6,0.1l-11.8-6.2l-11.8,6.2
		C106,1152,105.7,1152.1,105.5,1152.1z M118,1142.5c0.2,0,0.5,0.1,0.7,0.2l9.8,5.2l-1.9-10.9c-0.1-0.5,0.1-1,0.4-1.3l7.9-7.7
		l-11-1.6c-0.5-0.1-0.9-0.4-1.1-0.8l-4.9-9.9l-4.9,9.9c-0.2,0.4-0.6,0.7-1.1,0.8l-11,1.6l7.9,7.7c0.4,0.3,0.5,0.8,0.4,1.3l-1.9,10.9
		l9.8-5.2C117.5,1142.6,117.8,1142.5,118,1142.5z"/>
</g>
<g>
	<g>
		<path class="st1" d="M126.3,245.9l-0.1-0.1c-0.3-0.1-0.6-0.3-0.9-0.4c-0.3-0.1-0.7-0.3-1-0.4c-0.3-0.1-0.5-0.2-0.8-0.3
			c-0.4-0.1-0.8-0.2-1.3-0.3c-0.1,0-0.3-0.1-0.4-0.1l-0.1,0c-0.3,0-0.5-0.1-0.8-0.1l-0.1,0c0,0,0,0,0,0l-0.1,0
			c-0.2,0-0.4-0.1-0.7-0.1l-0.8-0.1c-0.9-0.1-1.9-0.1-2.8,0l-0.3,0l-0.1,0l-0.3,0c-0.3,0-0.6,0.1-0.9,0.1l-0.1,0
			c-0.2,0-0.4,0.1-0.6,0.1c-0.2,0-0.4,0.1-0.6,0.1c-0.4,0.1-0.8,0.2-1.2,0.3c-0.3,0.1-0.6,0.2-0.9,0.3l-0.2,0.1
			c-0.6,0.2-1.2,0.5-1.8,0.7l-0.2,0.1l0,0c-6.9,3.3-11.4,10.4-11.4,18c0,0.2,0,0.3,0,0.5l0.1,1.2h39.8l0.1-1.2c0-0.2,0-0.4,0-0.5
			C138,256.3,133.4,249.2,126.3,245.9L126.3,245.9z M100,263.9c0.1-6.9,4.2-13.2,10.3-16.1l0.2-0.1l0,0c0.5-0.2,1-0.4,1.5-0.6
			l0.2-0.1c0.3-0.1,0.6-0.2,0.8-0.3c0.4-0.1,0.7-0.2,1.1-0.3c0.2,0,0.4-0.1,0.6-0.1c0.2,0,0.3-0.1,0.5-0.1l0.1,0
			c0.3,0,0.6-0.1,0.8-0.1l0.6-0.1c0.8-0.1,1.6-0.1,2.6,0l0.6,0.1c0.2,0,0.3,0,0.5,0.1l0.2,0c0.2,0,0.5,0.1,0.7,0.1l0.1,0
			c0.1,0,0.3,0.1,0.4,0.1c0.4,0.1,0.8,0.2,1.1,0.3c0.2,0.1,0.5,0.1,0.7,0.2c0.3,0.1,0.6,0.2,0.9,0.3c0.3,0.1,0.6,0.2,0.8,0.4l0,0
			c6.3,2.9,10.5,9.2,10.5,16.2L100,263.9L100,263.9z M113.2,241.6c0.1,0.1,0.3,0.1,0.4,0.2l0.3,0.1c0.1,0,0.2,0.1,0.4,0.1
			c1.2,0.4,2.4,0.6,3.6,0.6l0.1,0c0.4,0,0.9,0,1.3-0.1c0.1,0,0.3,0,0.4-0.1l0.3,0c0.2,0,0.3,0,0.5-0.1c0.1,0,0.2-0.1,0.4-0.1
			l0.3-0.1c0.2,0,0.3-0.1,0.5-0.1c0.1,0,0.2-0.1,0.3-0.1l0.3-0.1c0.2-0.1,0.4-0.1,0.6-0.2c0.1,0,0.1-0.1,0.2-0.1l0.1,0
			c0.3-0.1,0.5-0.2,0.8-0.4l0.2-0.1c0.3-0.2,0.6-0.3,0.9-0.5c0.2-0.1,0.3-0.2,0.4-0.3l0.5-0.4c2.9-2.4,4.5-5.9,4.5-9.5l0-0.1
			c0-6.9-5.6-12.5-12.5-12.5c-6.6,0-12,5.1-12.4,11.7l0,0.2c0,0.2,0,0.4,0,0.6C105.6,235.1,108.5,239.6,113.2,241.6L113.2,241.6z
			 M107.5,229.6l0-0.2c0.3-5.5,4.9-9.9,10.5-9.9c5.8,0,10.5,4.7,10.5,10.4l0,0.1c0,3.1-1.4,6.1-3.8,8.1l-0.5,0.4
			c-0.1,0.1-0.2,0.2-0.3,0.3c-0.2,0.2-0.5,0.3-0.7,0.4l-0.1,0.1c-0.2,0.1-0.4,0.2-0.7,0.3l-0.3,0.1c-0.1,0.1-0.3,0.1-0.5,0.2
			l-0.3,0.1c-0.1,0-0.1,0-0.2,0.1c-0.1,0-0.2,0.1-0.4,0.1l-0.4,0.1c-0.1,0-0.2,0-0.2,0.1c-0.1,0-0.3,0-0.4,0.1l-0.4,0.1
			c-0.1,0-0.2,0-0.3,0c-0.3,0-0.7,0.1-1,0.1l-0.1,0h0c-1.1,0-2.1-0.2-3.1-0.5c-0.1,0-0.2-0.1-0.3-0.1l-0.4-0.1
			c-0.1,0-0.2-0.1-0.3-0.1c-3.9-1.6-6.4-5.5-6.4-9.7C107.5,230,107.5,229.8,107.5,229.6L107.5,229.6z M107.5,229.6"/>
	</g>
</g>
<g>
	<g>
		<path class="st1" d="M129.2,582.3c-0.2-0.2-0.5-0.3-0.8-0.3s-0.6,0.1-0.8,0.3l-1.9,1.9l-1.9-1.9c2.5-2.8,3.8-6.4,3.8-10.2
			c0-4.2-1.6-8.1-4.6-11c-6.1-6.1-15.9-6.1-22,0c-2.9,2.9-4.6,6.8-4.6,11c0,4.2,1.6,8.1,4.6,11c3,3,7,4.6,11,4.6
			c3.6,0,7.3-1.3,10.2-3.8l1.9,1.9l-1.9,1.9c-0.2,0.2-0.3,0.5-0.3,0.8s0.1,0.6,0.3,0.8l8.9,8.9c0.9,0.9,2.1,1.4,3.5,1.4
			c1.3,0,2.5-0.5,3.5-1.4c0.9-0.9,1.4-2.1,1.4-3.5s-0.5-2.5-1.4-3.5L129.2,582.3z M121.5,581.6c-5.2,5.2-13.7,5.2-18.9,0
			c-2.5-2.5-3.9-5.9-3.9-9.4s1.4-6.9,3.9-9.4c2.6-2.6,6-3.9,9.4-3.9c3.4,0,6.8,1.3,9.4,3.9c2.5,2.5,3.9,5.9,3.9,9.4
			C125.5,575.7,124.1,579,121.5,581.6z M124.6,588.4l3.8-3.8l8.1,8.1c0.5,0.5,0.8,1.2,0.8,1.9s-0.3,1.4-0.8,1.9
			c-0.5,0.5-1.2,0.8-1.9,0.8c-0.7,0-1.4-0.3-1.9-0.8L124.6,588.4z"/>
	</g>
	<g>
		<path class="st1" d="M119.7,564.5c-4.2-4.2-11-4.2-15.2,0c-4.2,4.2-4.2,11,0,15.2l0,0c2.1,2.1,4.9,3.2,7.6,3.2
			c2.8,0,5.5-1.1,7.6-3.2C123.9,575.5,123.9,568.7,119.7,564.5z M118.2,578.2c-3.3,3.3-8.8,3.3-12.1,0c-3.3-3.3-3.3-8.8,0-12.1
			c1.7-1.7,3.9-2.5,6.1-2.5c2.2,0,4.4,0.8,6.1,2.5C121.5,569.4,121.5,574.8,118.2,578.2z"/>
	</g>
</g>
<g>
	<g>
		<path class="st1" d="M126.4,800.3c0-0.1,0-0.3-0.1-0.4c0-0.1,0-0.1,0-0.2c0-0.3-0.1-0.6-0.2-0.9c0,0,0,0,0-0.1
			c-0.7-2.6-2.2-4.5-4.8-5.7c-1.8-0.9-3.8-1.1-5.9-0.6c-0.1,0-0.3,0.1-0.4,0.2c-2.5,0.7-4.3,2.2-5.5,4.7c-0.9,1.8-1.1,3.8-0.6,5.9
			c0,0.1,0.1,0.1,0.1,0.2c0.3,1.1,0.8,2.1,1.5,3c1.3,1.6,3,2.8,5,3.2c0.1,0,0.1,0,0.2,0c0.1,0,0.3,0,0.4,0.1c0.2,0,0.4,0.1,0.6,0.1
			c0,0,0,0,0,0c0.3,0,0.6,0.1,0.9,0.1c0.1,0,0.2,0,0.2,0c1.8,0,3.6-0.7,5.2-1.9c2.2-1.7,3.4-4.2,3.5-7
			C126.4,800.8,126.4,800.5,126.4,800.3z M122.6,805.3c-1.1,1.3-2.4,2-3.9,2.2c-0.1,0-0.3,0-0.4,0c-1.9,0.2-3.5-0.3-5-1.5
			c-1.7-1.4-2.5-3.3-2.3-5.7c0.2-2.2,1.4-4.1,3.5-5.3c1.4-0.8,2.9-0.8,4.2-0.7c2,0.3,3.7,1.5,4.8,3.4c0.3,0.6,0.5,1.2,0.6,1.8
			c0,0.2,0,0.4,0,0.5c0,0.2,0,0.5,0.1,0.7c0,0,0,0,0,0c0,0.1,0,0.2,0,0.2c0,0.2,0,0.3,0,0.5C124,803,123.5,804.2,122.6,805.3z"/>
	</g>
	<g>
		<path class="st1" d="M137.3,796.1c-0.8-0.1-1.7-0.1-2.6,0c-1.1,0.1-1.5-0.6-1.7-1.2c-0.4-1-0.8-1.8-1.2-2.5
			c-0.1-0.2-0.4-0.5-0.6-0.8c-0.5-0.6-1-1.2-1-1.9c0-0.8,0.4-1.5,0.9-2.2c0.2-0.3,0.3-0.5,0.5-0.8c0.9-1.6,0.4-3.3-1.1-4.2
			c-1.1-0.7-2.3-1.4-3.4-2c-1.6-0.8-3.2-0.4-4.1,1.1c-0.5,0.7-0.8,1.3-1.1,1.9c-0.4,0.8-1,1.1-2,1c-0.8-0.1-1.7-0.2-2.7-0.2
			c-0.3,0-0.6,0.1-0.9,0.1c-0.7,0.1-1.5,0.3-2.2-0.1c-0.7-0.4-1.1-1.2-1.5-1.9c-0.1-0.3-0.3-0.5-0.4-0.8c-0.6-1-1.5-1.5-2.8-1.6
			c-0.1,0-0.1,0-0.2,0c-0.1,0-0.3,0-0.4,0.1c-0.4,0.2-0.8,0.4-1.2,0.7c-1.2,0.7-2.5,1.3-3.7,2.2c-0.9,0.6-1.2,2.1-0.6,3.3
			c0.3,0.7,0.7,1.3,1.1,1.9c0.4,0.6,0.9,1.6-0.2,2.7c-0.5,0.5-0.9,1.2-1.2,1.8c-0.2,0.3-0.3,0.6-0.4,0.9c-0.3,0.8-0.6,1.6-1.3,2
			c-0.7,0.4-1.6,0.4-2.4,0.3c-0.4,0-0.7,0-1,0c-1.7,0.1-2.8,1.3-2.9,2.9c-0.1,1.5-0.1,2.9,0,4.2c0.1,1.6,1.2,2.7,2.9,2.8
			c0.7,0,1.5,0.1,2.1,0c1.4-0.1,1.8,0.7,2.1,1.4c0.2,0.7,0.6,1.3,1,2c0.2,0.3,0.4,0.5,0.6,0.8c0.5,0.6,1.1,1.3,1.1,2.1
			c0,0.8-0.5,1.6-0.9,2.3c-0.2,0.3-0.4,0.6-0.6,0.9c-0.7,1.4-0.3,2.9,0.9,3.7c1.3,0.9,2.7,1.7,4.1,2.3c1.3,0.6,2.7,0.2,3.6-1
			c0.3-0.3,0.5-0.7,0.7-1.1c0.2-0.4,0.5-0.8,0.8-1.2c0.3-0.5,1-0.8,1.6-0.8c0.8,0,1.7,0,2.6,0c0.9,0,1.7,0,2.6,0
			c0.6,0,1.2,0.3,1.5,0.8c0.3,0.4,0.5,0.8,0.8,1.3c0.2,0.3,0.4,0.7,0.6,1c0.9,1.3,2.4,1.7,3.8,1c1.3-0.6,2.6-1.4,3.8-2.2
			c1.3-0.8,1.7-2.4,1-3.8c-0.3-0.6-0.7-1.3-1.1-2c-0.4-0.6-0.8-1.4,0.1-2.5c0.5-0.6,0.9-1.3,1.3-1.9c0.2-0.3,0.3-0.6,0.4-0.9
			c0.3-0.8,0.6-1.6,1.3-2c0.7-0.5,1.6-0.4,2.4-0.3c0.3,0,0.7,0,1,0c1.6-0.1,2.8-1.3,2.9-2.9c0.1-1.4,0.1-2.9,0-4.2
			C139.9,797.3,138.8,796.2,137.3,796.1z M137.7,803.1c0,0.4-0.3,0.7-0.7,0.7l-1.2,0c-0.9,0-1.7,0-2.6,0c-1.4,0-1.5,0.1-1.9,1.4
			c-0.7,2.2-1.8,4.1-3.4,5.8c-0.8,0.9-0.8,1.1-0.2,2.2c0.4,0.7,0.9,1.5,1.3,2.3l0.7,1.1c0.2,0.3,0.1,0.8-0.3,1l-3.6,2.1
			c-0.1,0.1-0.2,0.1-0.4,0.1c-0.1,0-0.1,0-0.2,0c-0.2,0-0.3-0.2-0.4-0.3l-0.6-1.1c-0.4-0.8-0.9-1.5-1.3-2.3c-0.6-1.1-0.9-1.2-2-0.9
			c-2.3,0.5-4.6,0.5-6.9,0c-1-0.2-1.3-0.1-1.9,0.8c-0.5,0.8-0.9,1.6-1.4,2.4l-0.6,1.1c-0.2,0.3-0.6,0.5-1,0.3l-3.6-2.1
			c-0.3-0.2-0.5-0.6-0.3-1l1.9-3.3c0.7-1.2,0.7-1.4-0.2-2.3c-1.5-1.6-2.6-3.6-3.3-5.7c-0.4-1.3-0.5-1.4-2-1.4c-0.9,0-1.7,0-2.6,0
			l-1.2,0c-0.4,0-0.7-0.3-0.7-0.7v-4.2c0-0.4,0.3-0.7,0.7-0.7h3.5c1.7,0,1.8,0,2.3-1.6c0.6-2,1.7-3.8,3.2-5.4c1-1.1,1-1.2,0.3-2.4
			l-1.9-3.3c-0.1-0.2-0.1-0.4-0.1-0.5c0-0.2,0.2-0.3,0.3-0.4l3.6-2.1c0.3-0.2,0.8-0.1,1,0.3l2,3.4c0.7,1.1,0.8,1.2,2.1,0.9
			c2.3-0.5,4.5-0.5,6.8,0c1.2,0.3,1.4,0.2,2-0.9l2-3.4c0.1-0.2,0.3-0.3,0.4-0.3c0.2,0,0.4,0,0.5,0.1l3.6,2.1c0.3,0.2,0.5,0.6,0.3,1
			l-0.6,1.1c-0.5,0.8-0.9,1.6-1.3,2.3c-0.6,1.1-0.6,1.3,0.2,2.1c1.6,1.7,2.8,3.7,3.5,6.1c0.3,1,0.5,1.2,1.6,1.2c0.9,0,1.8,0,2.7,0
			l1.3,0c0.4,0,0.7,0.3,0.7,0.7V803.1z"/>
	</g>
</g>
<g>
	<g>
		<path class="st1" d="M118,893c-11.6,0-21,9.4-21,21c0,11.6,9.4,21,21,21s21-9.4,21-21C139,902.4,129.6,893,118,893L118,893z
			 M118,931.2c-9.5,0-17.2-7.7-17.2-17.2c0-9.5,7.7-17.2,17.2-17.2s17.2,7.7,17.2,17.2C135.2,923.5,127.5,931.2,118,931.2L118,931.2
			z M118,931.2"/>
	</g>
	<g>
		<path class="st1" d="M118,922.3c-1.4,0-2.5,1.1-2.5,2.5c0,1.4,1.1,2.5,2.5,2.5c1.4,0,2.5-1.1,2.5-2.5
			C120.5,923.4,119.4,922.3,118,922.3L118,922.3z M118,922.3"/>
	</g>
	<g>
		<path class="st1" d="M118,900.6c-3.9,0-7,3.1-7,7c0,1.1,0.9,1.9,1.9,1.9c1.1,0,1.9-0.9,1.9-1.9c0-1.8,1.4-3.2,3.2-3.2
			c1.8,0,3.2,1.4,3.2,3.2c0,1.8-1.4,3.2-3.2,3.2c-1.1,0-1.9,0.9-1.9,1.9v3.8c0,1.1,0.9,1.9,1.9,1.9c1.1,0,1.9-0.9,1.9-1.9v-2.2
			c2.9-0.8,5.1-3.5,5.1-6.7C125,903.8,121.9,900.6,118,900.6L118,900.6z M118,900.6"/>
	</g>
</g>
<g>
	<g>
		<path class="st1" d="M118.5,997.5c-11.3,0-20.5,9.2-20.5,20.5s9.2,20.5,20.5,20.5s20.5-9.2,20.5-20.5S129.8,997.5,118.5,997.5
			L118.5,997.5z M118.5,1034.8c-9.2,0-16.8-7.5-16.8-16.8s7.5-16.8,16.8-16.8s16.8,7.5,16.8,16.8S127.7,1034.8,118.5,1034.8
			L118.5,1034.8z M118.5,1034.8"/>
	</g>
	<g>
		<path class="st1" d="M118.5,1006.2c-1.4,0-2.5,1.1-2.5,2.5c0,1.4,1.1,2.5,2.5,2.5c1.4,0,2.5-1.1,2.5-2.5
			C121,1007.3,119.9,1006.2,118.5,1006.2L118.5,1006.2z M118.5,1006.2"/>
	</g>
	<g>
		<path class="st1" d="M118.5,1014.9c-1,0-1.9,0.8-1.9,1.9v11.2c0,1,0.8,1.9,1.9,1.9s1.9-0.8,1.9-1.9v-11.2
			C120.4,1015.7,119.5,1014.9,118.5,1014.9L118.5,1014.9z M118.5,1014.9"/>
	</g>
</g>
</svg>
