<!-- Generator: Adobe Illustrator 21.1.0, SVG Export Plug-In  -->
<svg version="1.1"
	 xmlns="http://www.w3.org/2000/svg" xmlns:xlink="http://www.w3.org/1999/xlink" xmlns:a="http://ns.adobe.com/AdobeSVGViewerExtensions/3.0/"
	 x="0px" y="0px" width="720px" height="1138px" viewBox="0 0 720 1138" style="enable-background:new 0 0 720 1138;"
	 xml:space="preserve">
<style type="text/css">
	.st0{fill:#F2F2F2;}
	.st1{opacity:0.2;fill:url(#SVGID_1_);}
	.st2{fill:#573D19;stroke:#000000;stroke-width:3;stroke-miterlimit:10;}
	.st3{fill:#2FEC80;}
	.st4{opacity:0.2;fill:url(#SVGID_2_);}
</style>
<defs>
</defs>
<rect y="1.9" class="st0" width="720" height="1136.1"/>
<linearGradient id="SVGID_1_" gradientUnits="userSpaceOnUse" x1="360" y1="0" x2="360" y2="1137">
	<stop  offset="0" style="stop-color:#FFFFFF;stop-opacity:0"/>
	<stop  offset="0.1102" style="stop-color:#CBCBCB;stop-opacity:0.1102"/>
	<stop  offset="0.239" style="stop-color:#969696;stop-opacity:0.239"/>
	<stop  offset="0.3696" style="stop-color:#686868;stop-opacity:0.3696"/>
	<stop  offset="0.4992" style="stop-color:#434343;stop-opacity:0.4992"/>
	<stop  offset="0.6276" style="stop-color:#252525;stop-opacity:0.6276"/>
	<stop  offset="0.7546" style="stop-color:#111111;stop-opacity:0.7546"/>
	<stop  offset="0.8795" style="stop-color:#040404;stop-opacity:0.8795"/>
	<stop  offset="1" style="stop-color:#000000"/>
</linearGradient>
<rect class="st1" width="720" height="1137"/>
<polygon class="st2" points="267,607.7 303.7,755 421,755 454,607.7 "/>
<g>
	<path class="st3" d="M359.1,638.3c-2.3-1.6-55.4-40.4-73.4-66.4c-18.2-26.3-8.6-65.6-8.2-67.2l0.2-0.7l0.7-0.3
		c0.2-0.1,1.9-0.7,5.3-0.7c7.8,0,25.4,3.5,55.2,26.9c17.5,13.8,27,36.8,27.3,66.5c0.2,22.3-4.8,40.9-4.8,41l-0.6,2.1L359.1,638.3z"
		/>
	<path d="M283.7,504.5c7.6,0,24.8,3.5,54.3,26.6c42,33,22,106,22,106s-55-40-73-66s-8-66-8-66S280.5,504.5,283.7,504.5 M283.7,501.5
		c-3.6,0-5.5,0.7-5.9,0.8l-1.4,0.6l-0.4,1.5c-0.4,1.7-10.1,41.6,8.4,68.4c18.1,26.1,71.4,65.1,73.7,66.7l3.5,2.6l1.1-4.2
		c0.2-0.8,5.1-18.9,4.9-41.5c-0.1-13.3-2.1-25.4-5.8-35.9c-4.7-13.2-12.1-24-22.1-31.8C309.7,505,291.7,501.5,283.7,501.5
		L283.7,501.5z"/>
</g>
<g>
	<path class="st3" d="M354.3,533.4c-0.4-0.2-37.8-20.8-35.8-54.4c2-33.1,17.6-53.9,18.3-54.8l1.1-1.4l1.2,1.3
		c1,1.1,25.4,26.8,23.4,54.2c-0.7,9.4-0.2,17.3,0.3,24.3c0.9,13,1.5,22.4-6.7,30.7l-0.8,0.8L354.3,533.4z"/>
	<path d="M338,425.1c0,0,25,26,23,53s6,42-6,54c0,0-37-20-35-53S338,425.1,338,425.1 M337.7,420.5l-2.1,2.8
		c-0.7,0.9-16.6,22.1-18.6,55.6c-0.9,14.4,5.2,28.6,17.6,41.2c9.2,9.3,18.6,14.4,19,14.7l2,1.1l1.6-1.6c8.7-8.7,8-18.9,7.2-31.8
		c-0.5-6.9-1-14.8-0.3-24.1c2.1-28-22.8-54.2-23.8-55.3L337.7,420.5L337.7,420.5z"/>
</g>
<g>
	<path class="st3" d="M377.6,599.7c-0.9-2-22.3-49.2-5.6-62.8c15.8-12.9,42.8-33.8,43-34l1.3-1l0.9,1.4c0.5,0.7,11.3,18,0.1,40.5
		c-1.2,2.4-2.4,4.9-3.7,7.4c-10.4,21.1-21.1,42.8-34,49.3l-1.4,0.7L377.6,599.7z"/>
	<path d="M416,504.1c0,0,11,17,0,39s-23,49-37,56c0,0-22-48-6-61S416,504.1,416,504.1 M416.7,499.7l-2.6,2c-0.3,0.2-27.2,21.2-43,34
		c-7.6,6.2-9,19.1-4,38.4c3.5,13.7,8.9,25.6,9.2,26.1l1.3,2.8l2.8-1.4c13.4-6.7,24.2-28.7,34.7-50c1.2-2.5,2.4-5,3.7-7.4
		c11.6-23.3,0.3-41.2-0.2-42L416.7,499.7L416.7,499.7z"/>
</g>
</svg>
