<!-- Generator: Adobe Illustrator 21.1.0, SVG Export Plug-In  -->
<svg version="1.1"
	 xmlns="http://www.w3.org/2000/svg" xmlns:xlink="http://www.w3.org/1999/xlink" xmlns:a="http://ns.adobe.com/AdobeSVGViewerExtensions/3.0/"
	 x="0px" y="0px" width="128.3px" height="100.4px" viewBox="0 0 128.3 100.4" style="enable-background:new 0 0 128.3 100.4;"
	 xml:space="preserve">
<style type="text/css">
	.st0{fill:#F7931E;}
	.st1{fill:#FFFFFF;}
</style>
<defs>
</defs>
<path class="st0" d="M77.9,100.4H1.9c-1,0-1.9-0.8-1.9-1.9V1.9C0,0.8,0.8,0,1.9,0l76.4,0c27.6,0,50.1,22.4,50.1,50.1v0
	C128.3,77.9,105.7,100.4,77.9,100.4z"/>
<g>
	<path class="st1" d="M54.4,75.3c-4.1,3.2-9.3,4.8-14.1,4.2c-0.7-0.1-1.4,0.4-1.5,1.2c-0.1,0.7,0.4,1.4,1.2,1.5
		c0.8,0.1,1.6,0.1,2.4,0.1c4.8,0,9.7-1.7,13.7-4.9c0.6-0.5,0.7-1.3,0.2-1.9C55.8,74.9,54.9,74.8,54.4,75.3z"/>
	<path class="st1" d="M57.7,72.1l-0.5,0.5c-0.5,0.5-0.5,1.4,0,1.9c0.3,0.3,0.6,0.4,1,0.4c0.3,0,0.7-0.1,1-0.4l0.5-0.5
		c0.5-0.5,0.5-1.4,0-1.9C59.1,71.6,58.2,71.6,57.7,72.1z"/>
	<path class="st1" d="M101,32.8C101,32.8,101,32.8,101,32.8c0-0.1,0.1-0.1,0.1-0.1c0,0,0,0,0,0c0,0,0-0.1,0.1-0.1c0,0,0,0,0,0
		c0,0,0-0.1,0-0.1c0,0,0,0,0,0c0,0,0-0.1,0-0.1c0,0,0,0,0,0c0,0,0-0.1,0-0.1c0,0,0,0,0,0c0-0.1,0-0.2,0-0.3c0,0,0,0,0,0
		c0,0,0-0.1,0-0.1c0,0,0,0,0,0c0,0,0-0.1,0-0.1c0,0,0,0,0,0c0,0,0-0.1,0-0.1c0,0,0,0,0,0c0,0,0-0.1-0.1-0.1c0,0,0,0,0,0
		c0,0,0-0.1-0.1-0.1c0,0,0,0,0,0c0,0,0-0.1-0.1-0.1c0,0-0.1-0.1-0.1-0.1L85.6,15.9c0,0-0.1-0.1-0.1-0.1c0,0-0.1,0-0.1-0.1
		c0,0,0,0,0,0c0,0-0.1,0-0.1-0.1c0,0,0,0,0,0c0,0-0.1,0-0.1,0c0,0,0,0,0,0c0,0-0.1,0-0.1,0c0,0,0,0,0,0c0,0-0.1,0-0.1,0c0,0,0,0,0,0
		c0,0-0.1,0-0.1,0c0,0,0,0,0,0c0,0-0.1,0-0.1,0c0,0,0,0-0.1,0c0,0,0,0-0.1,0c0,0,0,0-0.1,0c0,0,0,0-0.1,0c0,0,0,0-0.1,0c0,0,0,0,0,0
		c0,0-0.1,0-0.1,0c0,0,0,0,0,0c0,0-0.1,0-0.1,0c0,0,0,0,0,0c0,0-0.1,0-0.1,0c0,0,0,0,0,0c0,0-0.1,0-0.1,0.1c0,0,0,0,0,0
		c0,0,0,0-0.1,0.1c0,0-0.1,0.1-0.1,0.1l-4.8,4.8l0,0l-2.4,2.4c-2.6,2.6-2.6,6.8-0.1,9.4l-4.1,4.1c0,0-0.1,0.1-0.1,0.1
		c0,0,0,0.1-0.1,0.1c0,0,0,0,0,0c0,0,0,0.1-0.1,0.1c0,0,0,0,0,0c0,0,0,0.1-0.1,0.1c0,0,0,0,0,0c0,0,0,0.1,0,0.1c0,0,0,0,0,0
		c0,0,0,0.1,0,0.1c0,0,0,0,0,0c0,0,0,0.1,0,0.1c0,0,0,0,0,0c0,0.1,0,0.2,0,0.3c0,0,0,0,0,0c0,0,0,0.1,0,0.1c0,0,0,0,0,0
		c0,0,0,0.1,0,0.1c0,0,0,0,0,0c0,0,0,0.1,0,0.1c0,0,0,0,0,0c0,0.1,0.1,0.2,0.1,0.2c0,0,0,0,0,0c0,0,0,0.1,0.1,0.1c0,0,0,0,0,0
		c0,0,0,0.1,0.1,0.1l3.9,3.9l1,1l-8.1,8.1l-1.3-1.3l-2.7-2.7l6-6c0.5-0.5,0.5-1.4,0-1.9c-0.5-0.5-1.4-0.5-1.9,0l-6.9,6.9
		c0,0,0,0,0,0l-1.6,1.6c0,0,0,0,0,0l-1.1,1.1l-7-7c-0.3-0.3-0.6-0.4-1-0.4s-0.7,0.1-1,0.4L37.2,55.7c-7.6,7.6-9.9,19-5.9,28.9
		c0.1,0.3,0.4,0.6,0.7,0.7c3.2,1.3,6.6,2,10,2c7.1,0,13.8-2.8,18.9-7.8L74.5,66c0.3-0.3,0.4-0.6,0.4-1c0-0.4-0.1-0.7-0.4-1l-7-7
		l1.1-1.1c0,0,0,0,0,0l1.6-1.6c0,0,0,0,0,0l10-10l4.1-4.1c1.3,1.2,2.9,1.9,4.7,1.9c1.8,0,3.5-0.7,4.8-2l2.4-2.4c0,0,0,0,0,0l4.8-4.8
		C100.8,33,100.9,32.9,101,32.8C100.9,32.9,100.9,32.8,101,32.8z M97.9,32l-2.9,2.9L81.8,21.6l2.9-2.9L97.9,32z M82.3,38.4l-3.2,3.2
		L77.6,40l-2.4-2.4l3.2-3.2l0.7,0.7l0,0l2.5,2.5c0,0,0,0,0,0l0.6,0.6L82.3,38.4z M71.6,65.1L59.1,77.6c-4.5,4.5-10.6,7-17,7
		c-2.9,0-5.8-0.5-8.5-1.5c-3.3-8.8-1.2-18.8,5.5-25.5l12.5-12.5l6.1,6.1l-4.5,4.5c-0.5,0.5-0.5,1.4,0,1.9c0.3,0.3,0.6,0.4,1,0.4
		s0.7-0.1,1-0.4l5.4-5.4c0,0,0,0,0,0l2.7-2.7l1.7,1.7l2.3,2.3l-0.7,0.7c0,0,0,0,0,0l-7.5,7.5c-0.5,0.5-0.5,1.4,0,1.9
		c0.3,0.3,0.6,0.4,1,0.4s0.7-0.1,1-0.4l4.5-4.5L71.6,65.1z M88.9,39.5c-1.1,0-2.1-0.4-2.8-1.2l-0.9-0.9c0,0,0,0,0,0l-1-1l-0.2-0.2
		c-0.1-0.1-0.1-0.1-0.2-0.2c0,0-0.1-0.1-0.1-0.1c-0.1-0.1-0.1-0.1-0.2-0.2l-1.4-1.4L81,33.2c-0.1-0.1-0.1-0.1-0.2-0.2
		c0,0-0.1-0.1-0.1-0.1c-0.1-0.1-0.1-0.1-0.2-0.2l-2.1-2.1c-1.6-1.6-1.6-4.1,0-5.7l1.5-1.5l13.3,13.3l-1.5,1.5
		C90.9,39,89.9,39.5,88.9,39.5z"/>
</g>
</svg>
