<!-- Generator: Adobe Illustrator 21.1.0, SVG Export Plug-In  -->
<svg version="1.1"
	 xmlns="http://www.w3.org/2000/svg" xmlns:xlink="http://www.w3.org/1999/xlink" xmlns:a="http://ns.adobe.com/AdobeSVGViewerExtensions/3.0/"
	 x="0px" y="0px" width="199px" height="199px" viewBox="0 0 199 199" style="overflow:scroll;enable-background:new 0 0 199 199;"
	 xml:space="preserve">
<style type="text/css">
	.st0{fill:#187640;}
	.st1{fill:#EF695F;}
	.st2{fill:none;stroke:#666666;stroke-miterlimit:10;}
</style>
<defs>
</defs>
<path class="st0" d="M92.9,69.2c-0.6-0.4-1.5-0.3-2,0.4c-2.4,3.8-5.2,8.2-7.2,12.6c-0.3,0.7,0,1.6,0.7,2c0.2,0.1,0.4,0.1,0.6,0.1
	c0.5,0,1-0.3,1.3-0.8c2-4.3,4.6-8.5,7-12.2C93.7,70.6,93.5,69.7,92.9,69.2L92.9,69.2z M92.9,69.2"/>
<path class="st0" d="M83.8,85.8c-0.7-0.3-1.5,0.1-1.8,0.8c-0.3,0.8-0.6,1.6-0.7,2.4c-0.1,0.8,0.3,1.5,1.1,1.7h0.3
	c0.6,0,1.3-0.5,1.4-1.2c0.1-0.7,0.3-1.3,0.6-2C84.9,86.9,84.6,86.1,83.8,85.8L83.8,85.8z M83.8,85.8"/>
<path class="st1" d="M99.4,119.2c11.2,0,20.3-7,23.7-17.2H76.3C79.5,112.3,88.3,119.2,99.4,119.2z"/>
<g>
	<path d="M112.4,65.2c-3.3-4.8-6.6-9.8-9.2-15.1c-0.7-1.5-2.2-2.4-3.7-2.4c-1.5,0-3,0.9-3.7,2.4c-2.5,5.2-5.7,10.1-8.8,14.8
		c-6.2,9.4-12,18.2-12,28c0,15.2,10.2,26.2,24.4,26.2c14.3,0,25.1-11.3,25.1-26.2C124.5,83.2,118.6,74.5,112.4,65.2L112.4,65.2z
		 M99.4,116.3c-12.5,0-21.6-9.8-21.6-23.3c0-8.9,5.6-17.4,11.4-26.4c3.1-4.8,6.4-9.8,9-15.2c0.3-0.7,1-0.8,1.3-0.8
		c0.3,0,0.9,0.1,1.3,0.8c2.6,5.4,6.1,10.5,9.4,15.4c5.9,8.9,11.6,17.3,11.6,26.1C121.7,106.2,112.1,116.3,99.4,116.3L99.4,116.3z
		 M99.4,116.3"/>
</g>
<g>
	<path d="M92.9,69.2c-0.6-0.4-1.5-0.3-2,0.4c-2.4,3.8-5.2,8.2-7.2,12.6c-0.3,0.7,0,1.6,0.7,2c0.2,0.1,0.4,0.1,0.6,0.1
		c0.5,0,1-0.3,1.3-0.8c2-4.3,4.6-8.5,7-12.2C93.7,70.6,93.5,69.7,92.9,69.2L92.9,69.2z M92.9,69.2"/>
</g>
<g>
	<path d="M83.8,85.8c-0.7-0.3-1.5,0.1-1.8,0.8c-0.3,0.8-0.6,1.6-0.7,2.4c-0.1,0.8,0.3,1.5,1.1,1.7h0.3c0.6,0,1.3-0.5,1.4-1.2
		c0.1-0.7,0.3-1.3,0.6-2C84.9,86.9,84.6,86.1,83.8,85.8L83.8,85.8z M83.8,85.8"/>
</g>
<circle class="st2" cx="99.5" cy="99.5" r="99"/>
</svg>
