<!-- Generator: Adobe Illustrator 21.1.0, SVG Export Plug-In  -->
<svg version="1.1"
	 xmlns="http://www.w3.org/2000/svg" xmlns:xlink="http://www.w3.org/1999/xlink" xmlns:a="http://ns.adobe.com/AdobeSVGViewerExtensions/3.0/"
	 x="0px" y="0px" width="199px" height="199px" viewBox="0 0 199 199" style="overflow:scroll;enable-background:new 0 0 199 199;"
	 xml:space="preserve">
<style type="text/css">
	.st0{fill:#62C370;}
	.st1{fill:none;stroke:#666666;stroke-miterlimit:10;}
</style>
<defs>
</defs>
<path class="st0" d="M72.4,82.8c0,14.7,11.9,26.6,26.6,26.6s26.6-11.9,26.6-26.6c0-4.8-1.3-9.4-3.6-13.4H76.1
	C73.8,73.3,72.4,77.9,72.4,82.8z"/>
<g>
	<path d="M99,109.4c-14.7,0-26.6-11.9-26.6-26.6c0-14.7,11.9-26.6,26.6-26.6c6.6,0,13,2.5,17.9,6.9c0.7,0.7,0.8,1.8,0.1,2.5
		c-0.7,0.7-1.8,0.8-2.5,0.1c-4.3-3.9-9.8-6-15.5-6c-12.7,0-23,10.3-23,23s10.3,23,23,23c12.7,0,23-10.3,23-23
		c0-4.6-1.4-9.1-3.9-12.9c-0.5-0.8-0.3-1.9,0.5-2.5c0.8-0.5,1.9-0.3,2.5,0.5c3,4.4,4.5,9.5,4.5,14.9
		C125.6,97.4,113.7,109.4,99,109.4z"/>
</g>
<g>
	<path d="M99,43.9c-1,0-1.8-0.8-1.8-1.8V31.9c0-1,0.8-1.8,1.8-1.8c1,0,1.8,0.8,1.8,1.8v10.2C100.8,43.1,100,43.9,99,43.9z"/>
</g>
<g>
	<path d="M99,135.4c-1,0-1.8-0.8-1.8-1.8v-10.2c0-1,0.8-1.8,1.8-1.8c1,0,1.8,0.8,1.8,1.8v10.2C100.8,134.6,100,135.4,99,135.4z"/>
</g>
<g>
	<path d="M78.7,49.4c-0.6,0-1.2-0.3-1.5-0.9L72,39.6c-0.5-0.8-0.2-1.9,0.6-2.4c0.8-0.5,1.9-0.2,2.4,0.6l5.1,8.8
		c0.5,0.8,0.2,1.9-0.6,2.4C79.3,49.3,79,49.4,78.7,49.4z"/>
</g>
<g>
	<path d="M124.4,128.6c-0.6,0-1.2-0.3-1.5-0.9l-5.1-8.8c-0.5-0.8-0.2-1.9,0.6-2.4c0.8-0.5,1.9-0.2,2.4,0.6l5.1,8.8
		c0.5,0.8,0.2,1.9-0.6,2.4C125,128.5,124.7,128.6,124.4,128.6z"/>
</g>
<g>
	<path d="M63.8,64.2c-0.3,0-0.6-0.1-0.9-0.2l-8.8-5.1c-0.8-0.5-1.1-1.6-0.6-2.4c0.5-0.8,1.6-1.1,2.4-0.6l8.8,5.1
		c0.8,0.5,1.1,1.6,0.6,2.4C65,63.9,64.4,64.2,63.8,64.2z"/>
</g>
<g>
	<path d="M143,110c-0.3,0-0.6-0.1-0.9-0.2l-8.8-5.1c-0.8-0.5-1.1-1.6-0.6-2.4c0.5-0.8,1.6-1.1,2.4-0.6l8.8,5.1
		c0.8,0.5,1.1,1.6,0.6,2.4C144.2,109.7,143.6,110,143,110z"/>
</g>
<g>
	<path d="M58.4,84.6H48.2c-1,0-1.8-0.8-1.8-1.8s0.8-1.8,1.8-1.8h10.2c1,0,1.8,0.8,1.8,1.8S59.3,84.6,58.4,84.6z"/>
</g>
<g>
	<path d="M149.8,84.6h-10.2c-1,0-1.8-0.8-1.8-1.8s0.8-1.8,1.8-1.8h10.2c1,0,1.8,0.8,1.8,1.8S150.8,84.6,149.8,84.6z"/>
</g>
<g>
	<path d="M55,110c-0.6,0-1.2-0.3-1.5-0.9c-0.5-0.8-0.2-1.9,0.6-2.4l8.8-5.1c0.8-0.5,1.9-0.2,2.4,0.6c0.5,0.8,0.2,1.9-0.6,2.4
		l-8.8,5.1C55.6,109.9,55.3,110,55,110z"/>
</g>
<g>
	<path d="M134.2,64.2c-0.6,0-1.2-0.3-1.5-0.9c-0.5-0.8-0.2-1.9,0.6-2.4l8.8-5.1c0.8-0.5,1.9-0.2,2.4,0.6c0.5,0.8,0.2,1.9-0.6,2.4
		l-8.8,5.1C134.8,64.2,134.5,64.2,134.2,64.2z"/>
</g>
<g>
	<path d="M73.6,128.6c-0.3,0-0.6-0.1-0.9-0.2c-0.8-0.5-1.1-1.6-0.6-2.4l5.1-8.8c0.5-0.8,1.6-1.1,2.4-0.6c0.8,0.5,1.1,1.6,0.6,2.4
		l-5.1,8.8C74.8,128.3,74.2,128.6,73.6,128.6z"/>
</g>
<g>
	<path d="M119.3,49.4c-0.3,0-0.6-0.1-0.9-0.2c-0.8-0.5-1.1-1.6-0.6-2.4l5.1-8.8c0.5-0.8,1.6-1.1,2.4-0.6c0.8,0.5,1.1,1.6,0.6,2.4
		l-5.1,8.8C120.5,49,119.9,49.4,119.3,49.4z"/>
</g>
<circle class="st1" cx="99.5" cy="99.5" r="99"/>
</svg>
