<!-- Generator: Adobe Illustrator 21.1.0, SVG Export Plug-In  -->
<svg version="1.1"
	 xmlns="http://www.w3.org/2000/svg" xmlns:xlink="http://www.w3.org/1999/xlink" xmlns:a="http://ns.adobe.com/AdobeSVGViewerExtensions/3.0/"
	 x="0px" y="0px" width="199px" height="199px" viewBox="0 0 199 199" style="overflow:scroll;enable-background:new 0 0 199 199;"
	 xml:space="preserve">
<style type="text/css">
	.st0{fill:#62C370;}
	.st1{fill:none;stroke:#666666;stroke-miterlimit:10;}
</style>
<defs>
</defs>
<g>
	<g>
		<path d="M111.7,93.2v-4.1c0-0.7-0.6-1.4-1.4-1.4s-1.4,0.6-1.4,1.4v4.7c0,0.4,0.2,0.8,0.5,1c3.4,2.9,5.3,7.1,5.3,11.6
			c0,8.4-6.8,15.3-15.3,15.3s-15.3-6.8-15.3-15.3c0-4.4,1.9-8.7,5.3-11.6c0.3-0.3,0.5-0.6,0.5-1V48.6c0-5.2,4.3-9.5,9.5-9.5
			s9.5,4.3,9.5,9.5v34.7c0,0.7,0.6,1.4,1.4,1.4s1.4-0.6,1.4-1.4V48.6c0-6.7-5.5-12.2-12.2-12.2s-12.2,5.5-12.2,12.2v44.6
			c-3.7,3.4-5.8,8.2-5.8,13.2c0,9.9,8.1,18,18,18s18-8.1,18-18C117.5,101.4,115.4,96.6,111.7,93.2z"/>
	</g>
	<path class="st0" d="M94.6,62.6v36.2c-2.7,1.7-4.3,4.6-4.3,7.8c0,5.1,4.2,9.2,9.3,9.2s9.3-4.1,9.3-9.2c0-3.2-1.6-6.1-4.3-7.8V62.6"
		/>
</g>
<circle class="st1" cx="99.5" cy="99.5" r="99"/>
</svg>
